<svg width="1200" height="300" viewBox="0 0 1200 300" xmlns="http://www.w3.org/2000/svg">

<defs>

<linearGradient id="bg" x1="0%" y1="0%" x2="100%" y2="100%">
<stop offset="0%" stop-color="#04030A"/>
<stop offset="100%" stop-color="#12001F"/>
</linearGradient>

<filter id="glowPurple">
<feGaussianBlur stdDeviation="4" result="blur"/>
<feMerge>
<feMergeNode in="blur"/>
<feMergeNode in="SourceGraphic"/>
</feMerge>
</filter>

<filter id="glowCyan">
<feGaussianBlur stdDeviation="3" result="blur"/>
<feMerge>
<feMergeNode in="blur"/>
<feMergeNode in="SourceGraphic"/>
</feMerge>
</filter>

</defs>

<rect width="1200" height="300" fill="url(#bg)"/>

<path
d="M40 40
H1090
L1160 95
V230
L1110 260
H80
L40 220
Z"

fill="none"
stroke="#B44DFF"
stroke-width="2"
filter="url(#glowPurple)"
/>

<line
x1="70"
y1="70"
x2="320"
y2="70"
stroke="#00FFFF"
stroke-width="3"
filter="url(#glowCyan)"
/>

<line
x1="870"
y1="70"
x2="1120"
y2="70"
stroke="#00FFFF"
stroke-width="3"
filter="url(#glowCyan)"
/>

<circle
cx="1095"
cy="230"
r="5"
fill="#00FFFF"
/>

<circle
cx="1115"
cy="230"
r="5"
fill="#B44DFF"
/>

<circle
cx="1135"
cy="230"
r="5"
fill="#00FF66"
/>

<text
x="70"
y="112"
fill="#FFFFFF"
font-size="44"
font-family="Trebuchet MS"
font-weight="bold"
letter-spacing="2">

JOSUE CACERES IRIARTE

</text>

<text
x="70"
y="150"
fill="#B44DFF"
font-size="24"
font-family="Trebuchet MS"
letter-spacing="3">

SOFTWARE DEVELOPER // IT SPECIALIST

</text>

<text
x="70"
y="188"
fill="#00FFFF"
font-size="22"
font-family="Consolas"
letter-spacing="1">

Python | C++ | JavaScript | Networks | Cybersecurity

</text>

<rect
x="70"
y="220"
width="300"
height="38"
rx="6"
fill="#090012"
stroke="#00FFFF"
/>

<circle
cx="92"
cy="239"
r="6"
fill="#00FF66"
/>

<text
x="110"
y="245"
fill="#00FF66"
font-size="17"
font-family="Consolas"
letter-spacing="1">

STATUS : ONLINE

</text>

<text
x="760"
y="118"
fill="#7F7F7F"
font-size="16"
font-family="Consolas">

LOCATION

</text>

<text
x="760"
y="150"
fill="#FFFFFF"
font-size="28"
font-family="Trebuchet MS"
font-weight="bold">

MONTERIA_CO

</text>

<text
x="760"
y="190"
fill="#7F7F7F"
font-size="16"
font-family="Consolas">

WEBSITE

</text>

<text
x="760"
y="222"
fill="#00FFFF"
font-size="22"
font-family="Trebuchet MS">

josue-dev-02.tech

</text>

<text
x="760"
y="255"
fill="#B44DFF"
font-size="16"
font-family="Consolas">

ROOT ACCESS GRANTED

</text>

</svg>
