<svg width="1200" height="320" viewBox="0 0 1200 320" xmlns="http://www.w3.org/2000/svg">

<defs>

<linearGradient id="bg" x1="0%" y1="0%" x2="100%" y2="100%">
<stop offset="0%" stop-color="#050816"/>
<stop offset="100%" stop-color="#14001F"/>
</linearGradient>

<filter id="glow">
<feGaussianBlur stdDeviation="3" result="blur"/>
<feMerge>
<feMergeNode in="blur"/>
<feMergeNode in="SourceGraphic"/>
</feMerge>
</filter>

</defs>

<rect width="1200" height="320" fill="url(#bg)"/>

<path
d="
M40 40
H1110
L1160 90
V230
L1110 280
H90
L40 230
Z"
fill="none"
stroke="#B44DFF"
stroke-width="2"
filter="url(#glow)"
/>

<rect
x="70"
y="55"
width="220"
height="42"
rx="6"
fill="#0A0015"
stroke="#00FFFF"
/>

<text
x="95"
y="82"
fill="#00FFFF"
font-size="18"
font-family="Verdana">

System Profile

</text>

<text
x="70"
y="145"
fill="#FFFFFF"
font-size="48"
font-family="Verdana"
font-weight="bold"
letter-spacing="2">

Josue Caceres I

</text>

<text
x="70"
y="182"
fill="#B44DFF"
font-size="26"
font-family="Verdana"
font-weight="bold"
letter-spacing="3">

Software Developer

</text>

<text
x="70"
y="220"
fill="#00FFFF"
font-size="21"
font-family="Verdana">

Python | C++ | JS | Flask | HTML/CSS | SQL

</text>

<text
x="70"
y="248"
fill="#00FFFF"
font-size="21"
font-family="Verdana">

Networks | Cybersecurity

</text>

<rect
x="70"
y="270"
width="290"
height="38"
rx="6"
fill="#0A0015"
stroke="#00FFFF"
/>

<circle
cx="95"
cy="289"
r="6"
fill="#00FF66"
/>

<text
x="115"
y="295"
fill="#00FF66"
font-size="18"
font-family="Verdana"
font-weight="bold">

Status : ONLINE

</text>

<rect
x="760"
y="70"
width="330"
height="170"
rx="12"
fill="#0A0015"
stroke="#B44DFF"
/>

<text
x="790"
y="110"
fill="#888888"
font-size="16"
font-family="Verdana">

LOCATION

</text>

<text
x="790"
y="145"
fill="#FFFFFF"
font-size="30"
font-family="Verdana">

MONTERIA_CO

</text>

<text
x="790"
y="190"
fill="#888888"
font-size="16"
font-family="Verdana">

WEBSITE

</text>

<text
x="790"
y="225"
fill="#00FFFF"
font-size="24"
font-family="Verdana"
font-weight="bold">

josue-dev-02.tech

</text>

<text
x="790"
y="265"
fill="#B44DFF"
font-size="16"
font-family="Verdana">

ROOT ACCESS GRANTED

</text>

<circle cx="1035" cy="262" r="5" fill="#00FF66"/>
<circle cx="1055" cy="262" r="5" fill="#00FFFF"/>
<circle cx="1075" cy="262" r="5" fill="#B44DFF"/>

</svg>
