<svg width="1200" height="500"
viewBox="0 0 1200 500"
xmlns="http://www.w3.org/2000/svg">

<defs>
<linearGradient id="bg" x1="0%" y1="0%" x2="100%" y2="100%">
<stop offset="0%" stop-color="#050816"/>
<stop offset="100%" stop-color="#14001F"/>
</linearGradient>
</defs>

<rect width="1200" height="500" fill="url(#bg)"/>

<path
d="M40 40 H1110 L1160 90 V410 L1110 460 H90 L40 410 Z"
fill="none"
stroke="#B44DFF"
stroke-width="2"
/>

<rect x="70" y="55" width="220" height="42" rx="6"
fill="#0A0015" stroke="#00FFFF"/>

<text x="95" y="82"
fill="#00FFFF"
font-size="18"
font-family="Verdana"
font-weight="bold">
Certifications
</text>

<text x="70" y="135"
fill="#FFFFFF"
font-size="42"
font-family="Verdana"
font-weight="bold"
letter-spacing="2">
CERTIFICATIONS
</text>

<text x="70" y="185" fill="#FFFFFF" font-size="19" font-family="Verdana">
✓ Python Developer Certification
</text>

<text x="95" y="210" fill="#8A8A8A" font-size="14" font-family="Verdana">
freeCodeCamp · March 2026 · ~300h
</text>

<text x="70" y="255" fill="#FFFFFF" font-size="19" font-family="Verdana">
✓ Relational Database Certification
</text>

<text x="95" y="280" fill="#8A8A8A" font-size="14" font-family="Verdana">
freeCodeCamp · April 2026 · ~300h
</text>

<text x="70" y="325" fill="#FFFFFF" font-size="19" font-family="Verdana">
✓ Cybersecurity & Ethical Hacking
</text>

<text x="95" y="350" fill="#8A8A8A" font-size="14" font-family="Verdana">
BIG School · April 2026 · ~48h
</text>

<text x="70" y="395" fill="#FFFFFF" font-size="19" font-family="Verdana">
✓ AI Development Fundamentals
</text>

<text x="95" y="420" fill="#8A8A8A" font-size="14" font-family="Verdana">
BIG School · March 2026 · ~48h
</text>

<rect x="680" y="100" width="380" height="280" rx="12"
fill="#0A0015" stroke="#B44DFF"/>

<text x="710" y="150"
fill="#FFFFFF"
font-size="19"
font-family="Verdana">
✓ Conceptualization of C++
</text>

<text x="735" y="175"
fill="#8A8A8A"
font-size="14"
font-family="Verdana">
SENA · March 2026 · ~40h
</text>

<text x="710" y="240"
fill="#FFFFFF"
font-size="19"
font-family="Verdana">
✓ LEGO WeDo Robotics Workshop
</text>

<text x="735" y="265"
fill="#8A8A8A"
font-size="14"
font-family="Verdana">
REDCOLSI Córdoba · May 2025 · ~48h
</text>

<line x1="710" y1="315" x2="1030" y2="315"
stroke="#00FFFF" stroke-width="1"/>

<text x="710" y="355"
fill="#00FFFF"
font-size="18"
font-family="Verdana"
font-weight="bold">
Training Status : ACTIVE
</text>

<circle cx="1000" cy="350" r="6" fill="#00FF66"/>
<circle cx="1020" cy="350" r="6" fill="#00FFFF"/>
<circle cx="1040" cy="350" r="6" fill="#B44DFF"/>

</svg>
